<svg width="35" height="33" viewBox="0 0 35 33" fill="none" xmlns="http://www.w3.org/2000/svg">
<path d="M28.9 0H6.08421C2.72399 0 0 2.53056 0 5.65217V26.8478C0 29.9694 2.72399 32.5 6.08421 32.5H28.9C32.2602 32.5 34.9842 29.9694 34.9842 26.8478V5.65217C34.9842 2.53056 32.2602 0 28.9 0Z" fill="#EAF3FF"/>
<path d="M28.1395 4.94565H6.84472C6.00467 4.94565 5.32367 5.57829 5.32367 6.35869V9.18478C5.32367 9.96518 6.00467 10.5978 6.84472 10.5978H28.1395C28.9795 10.5978 29.6605 9.96518 29.6605 9.18478V6.35869C29.6605 5.57829 28.9795 4.94565 28.1395 4.94565Z" fill="#2B6EF6"/>
<path d="M9.1263 14.1304H6.0842C5.66417 14.1304 5.32367 14.4468 5.32367 14.837V17.663C5.32367 18.0532 5.66417 18.3696 6.0842 18.3696H9.1263C9.54633 18.3696 9.88683 18.0532 9.88683 17.663V14.837C9.88683 14.4468 9.54633 14.1304 9.1263 14.1304Z" fill="#2B6EF6"/>
<path d="M15.971 14.1304H12.9289C12.5089 14.1304 12.1684 14.4468 12.1684 14.837V17.663C12.1684 18.0532 12.5089 18.3696 12.9289 18.3696H15.971C16.3911 18.3696 16.7316 18.0532 16.7316 17.663V14.837C16.7316 14.4468 16.3911 14.1304 15.971 14.1304Z" fill="#2B6EF6"/>
<path d="M22.8158 14.1304H19.7737C19.3537 14.1304 19.0132 14.4468 19.0132 14.837V17.663C19.0132 18.0532 19.3537 18.3696 19.7737 18.3696H22.8158C23.2358 18.3696 23.5763 18.0532 23.5763 17.663V14.837C23.5763 14.4468 23.2358 14.1304 22.8158 14.1304Z" fill="#2B6EF6"/>
<path d="M9.1263 20.4891H6.0842C5.66417 20.4891 5.32367 20.8055 5.32367 21.1957V24.0217C5.32367 24.4119 5.66417 24.7283 6.0842 24.7283H9.1263C9.54633 24.7283 9.88683 24.4119 9.88683 24.0217V21.1957C9.88683 20.8055 9.54633 20.4891 9.1263 20.4891Z" fill="#2B6EF6"/>
<path d="M15.971 20.4891H12.9289C12.5089 20.4891 12.1684 20.8055 12.1684 21.1957V24.0217C12.1684 24.4119 12.5089 24.7283 12.9289 24.7283H15.971C16.3911 24.7283 16.7316 24.4119 16.7316 24.0217V21.1957C16.7316 20.8055 16.3911 20.4891 15.971 20.4891Z" fill="#2B6EF6"/>
<path d="M22.8158 20.4891H19.7737C19.3537 20.4891 19.0132 20.8055 19.0132 21.1957V24.0217C19.0132 24.4119 19.3537 24.7283 19.7737 24.7283H22.8158C23.2358 24.7283 23.5763 24.4119 23.5763 24.0217V21.1957C23.5763 20.8055 23.2358 20.4891 22.8158 20.4891Z" fill="#2B6EF6"/>
</svg>
