<svg width="25" height="25" viewBox="0 0 25 25" fill="none" xmlns="http://www.w3.org/2000/svg">
<path d="M0.543275 11.5252L9.54298 0.725794C9.73062 0.500637 9.9851 0.374145 10.2505 0.374145C10.5158 0.374145 10.7703 0.500637 10.9579 0.725794C11.1456 0.95095 11.251 1.25633 11.251 1.57475C11.251 1.89317 11.1456 2.19854 10.9579 2.4237L3.66442 11.1742L23.25 11.1742C23.5152 11.1742 23.7696 11.3006 23.9571 11.5257C24.1446 11.7507 24.25 12.0559 24.25 12.3741C24.25 12.6924 24.1446 12.9976 23.9571 13.2226C23.7696 13.4477 23.5152 13.5741 23.25 13.5741L3.66442 13.5741L10.9579 22.3246C11.1456 22.5497 11.251 22.8551 11.251 23.1735C11.251 23.492 11.1456 23.7973 10.9579 24.0225C10.7703 24.2477 10.5158 24.3741 10.2505 24.3741C9.9851 24.3741 9.73062 24.2477 9.54298 24.0225L0.543275 13.2231C0.450302 13.1117 0.376545 12.9793 0.326222 12.8336C0.2759 12.688 0.25 12.5318 0.25 12.3741C0.25 12.2165 0.2759 12.0603 0.326222 11.9146C0.376545 11.769 0.450302 11.6366 0.543275 11.5252Z" fill="black"/>
</svg>
